<svg width="304" height="288" viewBox="0 0 304 288" fill="none" xmlns="http://www.w3.org/2000/svg">
<path d="M278.058 0.135037H54.0584L7.05844 41.635C0.658436 48.035 -0.274897 53.635 0.0584362 55.635V214.635C0.458436 241.035 22.5584 241.302 33.5584 238.135V268.135C45.1584 292.135 64.7251 288.468 73.0584 283.635L119.058 238.135H253.058L303.058 186.635V19.135C293.458 1.93504 282.392 -0.698296 278.058 0.135037Z" fill="#FF5500"/>
<rect x="60" y="24" width="218" height="152" rx="8" fill="white"/>
<ellipse cx="121.5" cy="80.5" rx="30.5" ry="42.5" fill="#383539"/>
<ellipse cx="214.5" cy="80.5" rx="30.5" ry="42.5" fill="#383539"/>
<ellipse cx="126" cy="68" rx="10" ry="14" fill="white"/>
<ellipse cx="219" cy="68" rx="10" ry="14" fill="white"/>
<path d="M187.891 129H150.391C141.191 143.8 148.558 153.167 153.391 156C167.391 162.4 182.224 158.667 187.891 156C197.091 143.2 191.724 132.667 187.891 129Z" fill="#383539"/>
</svg>
